<?xml version="1.0" standalone="no"?>
<!DOCTYPE svg PUBLIC "-//W3C//DTD SVG 20010904//EN"
 "http://www.w3.org/TR/2001/REC-SVG-20010904/DTD/svg10.dtd">
<svg version="1.0" xmlns="http://www.w3.org/2000/svg"
 width="32.000000pt" height="32.000000pt" viewBox="0 0 32.000000 32.000000"
 preserveAspectRatio="xMidYMid meet">

<g transform="translate(0.000000,32.000000) scale(0.100000,-0.100000)"
fill="#000000" stroke="none">
<path d="M0 160 l0 -160 160 0 160 0 0 160 0 160 -160 0 -160 0 0 -160z m144
54 c9 -8 16 -21 16 -27 0 -23 -31 -57 -51 -57 -14 0 -19 -7 -19 -25 0 -18 -5
-25 -20 -25 -18 0 -20 7 -20 68 0 38 3 72 7 75 12 13 72 7 87 -9z m120 0 c9
-8 16 -21 16 -27 0 -23 -31 -57 -51 -57 -14 0 -19 -7 -19 -25 0 -18 -5 -25
-20 -25 -18 0 -20 7 -20 68 0 38 3 72 7 75 12 13 72 7 87 -9z"/>
<path d="M90 180 c0 -21 4 -30 13 -27 6 2 12 14 12 27 0 13 -6 25 -12 28 -9 2
-13 -7 -13 -28z"/>
<path d="M210 180 c0 -21 4 -30 13 -27 6 2 12 14 12 27 0 13 -6 25 -12 28 -9
2 -13 -7 -13 -28z"/>
</g>
</svg>
